<svg xmlns="http://www.w3.org/2000/svg" width="54" height="54" viewBox="0 0 54 54"><defs><style>.a{fill:#5153fb;}.b{fill:#fff;}</style></defs><g transform="translate(-252 -2328)"><g transform="translate(22 32)"><g transform="translate(-18761 3460)"><circle class="a" cx="27" cy="27" r="27" transform="translate(18991 -1164)"></circle><g transform="translate(19002.912 -1150)"><g transform="translate(0.088 1.1)"><path class="b" d="M5.1,5.89c.9-.15,1.444.375,1.762,1.275.469,1.294.973,2.568,1.5,3.844A1.339,1.339,0,0,1,7.8,12.865c-.656.431-1.314.844-1.969,1.256A1.145,1.145,0,0,0,5.3,15.639a17.521,17.521,0,0,0,6.32,8.623,1.229,1.229,0,0,0,1.708-.038c.619-.525,1.237-1.05,1.875-1.537a1.209,1.209,0,0,1,1.628-.019c1.294,1.031,2.568,2.1,3.844,3.131a1.212,1.212,0,0,1,.413,1.331,3.844,3.844,0,0,1-1.95,2.739,6.565,6.565,0,0,1-5.849.375A21.854,21.854,0,0,1,2.733,20.419,20.98,20.98,0,0,1,.109,11.908C-.173,9.115,2.4,5.909,5.1,5.89Z" transform="translate(-0.088 -5.865)"></path></g><g transform="translate(11.011 0.837)"><path class="b" d="M59.11,17.464a.855.855,0,0,1-.413-.112.738.738,0,0,1-.225-1.031l7.5-11.511A.751.751,0,0,1,67.322,5l2.212,7.5,3.75-5.962-1.821.206a.73.73,0,0,1-.827-.656.742.742,0,0,1,.656-.827l3.375-.394h.056a1.062,1.062,0,0,1,.34.056h0l.112.056a.749.749,0,0,1,.3.375h0l1.106,3.037a.638.638,0,0,1,.037.262.769.769,0,0,1-.487.712.73.73,0,0,1-.956-.45L74.6,7.32l-4.668,7.37a.722.722,0,0,1-.73.338.747.747,0,0,1-.619-.525L66.347,6.964l-6.6,10.144A.778.778,0,0,1,59.11,17.464Z" transform="translate(-58.351 -4.466)"></path></g><g transform="translate(20.075 8.343)"><circle class="b" cx="1.912" cy="1.912" r="1.912" transform="translate(0 0)"></circle></g><g transform="translate(17.3 0)"><circle class="b" cx="1.912" cy="1.912" r="1.912" transform="translate(0)"></circle></g></g></g></g></g></svg>