<svg xmlns="http://www.w3.org/2000/svg" width="54" height="54" viewBox="0 0 54 54"><defs><style>.a{fill:#5153fb;}.b{fill:#fff;}</style></defs><g transform="translate(-186 -3087)"><circle class="a" cx="27" cy="27" r="27" transform="translate(186 3087)"></circle><g transform="translate(-80 -93)"><g transform="translate(276 3193)"><g transform="translate(0)"><g transform="translate(0 0.002)"><path class="b" d="M658.084,1450.382h-1.461c-1.11,0-2.454-.584-2.454-3.331v-7.77c0-1.636-.468-1.636-.7-1.636H653V1435.6h.409c.234,0,.7,0,.7-1.636v-7.83c0-2.746,1.344-3.331,2.454-3.331h1.461v1.929h-1.11c-.234,0-.7,0-.7,1.461v7.947a3.023,3.023,0,0,1-.876,2.454,3.131,3.131,0,0,1,.876,2.454v7.947c0,1.461.468,1.461.7,1.461h1.11v1.929Z" transform="translate(-653 -1422.803)"></path></g><g transform="translate(29.976)"><path class="b" d="M705.761,1450.381H704.3v-1.929h1.11c.234,0,.7,0,.7-1.461v-7.947a2.941,2.941,0,0,1,.876-2.454,3.13,3.13,0,0,1-.876-2.454v-7.947c0-1.461-.468-1.461-.7-1.461H704.3V1422.8h1.461c1.11,0,2.454.584,2.454,3.331v7.83c0,1.636.468,1.636.7,1.636h.409v2.044h-.409c-.234,0-.7,0-.7,1.636v7.83C708.273,1449.8,706.929,1450.381,705.761,1450.381Z" transform="translate(-704.3 -1422.8)"></path></g><g transform="translate(6.661 3.039)"><g transform="translate(3.097 2.454)"><g transform="translate(0 0)"><path class="b" d="M671.512,1435.822a1.812,1.812,0,1,1,1.812-1.812,1.75,1.75,0,0,1-1.812,1.812Z" transform="translate(-669.7 -1432.199)"></path><g transform="translate(5.96)"><path class="b" d="M681.712,1435.822a1.812,1.812,0,1,1,1.812-1.812A1.812,1.812,0,0,1,681.712,1435.822Z" transform="translate(-679.9 -1432.199)"></path></g><g transform="translate(11.92)"><path class="b" d="M691.912,1435.822a1.812,1.812,0,1,1,1.812-1.812,1.812,1.812,0,0,1-1.812,1.812Z" transform="translate(-690.1 -1432.199)"></path></g></g></g><path class="b" d="M686.078,1436.47H664.4V1428h21.679Zm-19.984-1.636h18.348v-5.2H666.094Z" transform="translate(-664.4 -1428)"></path><g transform="translate(0 13.147)"><g transform="translate(3.097 2.454)"><g transform="translate(0 0)"><path class="b" d="M671.512,1458.322a1.812,1.812,0,1,1,1.812-1.812,1.75,1.75,0,0,1-1.812,1.812Z" transform="translate(-669.7 -1454.699)"></path><g transform="translate(5.96)"><path class="b" d="M681.712,1458.322a1.812,1.812,0,1,1,1.812-1.812A1.812,1.812,0,0,1,681.712,1458.322Z" transform="translate(-679.9 -1454.699)"></path></g><g transform="translate(11.92)"><path class="b" d="M691.912,1458.322a1.812,1.812,0,1,1,1.812-1.812,1.812,1.812,0,0,1-1.812,1.812Z" transform="translate(-690.1 -1454.699)"></path></g></g></g><path class="b" d="M686.078,1458.97H664.4v-8.47h21.679Zm-19.984-1.636h18.348v-5.2H666.094Z" transform="translate(-664.4 -1450.5)"></path></g></g></g></g></g></g></svg>