<svg xmlns="http://www.w3.org/2000/svg" width="80" height="80" viewBox="0 0 80 80"><defs><style>.a{fill:#222;}.b,.c{fill:none;stroke:#fff;stroke-width:2px;}.b{stroke-linecap:round;}.c{stroke-dasharray:5.897 10.811;}</style></defs><g transform="translate(-1041 -2961)"><circle class="a" cx="40" cy="40" r="40" transform="translate(1041 2961)"></circle><path class="b" d="M75.9,55.063V15.6" transform="translate(1005.1 2965.668)"></path><path class="b" d="M55.583,15.6h-.458a25.369,25.369,0,0,0,0,39.463h.458" transform="translate(1025.416 2965.668)"></path><path class="b" d="M32.1,34.4a25.46,25.46,0,0,0,28.665,0" transform="translate(1034.568 2953.02)"></path><path class="b" d="M15.6,75.9H55.1" transform="translate(1045.668 2925.1)"></path><path class="b" d="M55.063,35.332A19.732,19.732,0,1,1,35.331,15.6,19.732,19.732,0,0,1,55.063,35.332Z" transform="translate(1045.668 2965.668)"></path><path class="b" d="M60.765,106.217a25.459,25.459,0,0,0-28.665,0" transform="translate(1034.568 2907.675)"></path><path class="b" d="M75.9,15.6h.458a25.369,25.369,0,0,1,0,39.463H75.9" transform="translate(1005.1 2965.668)"></path><path class="c" d="M28.563,0A28.563,28.563,0,1,1,0,28.563,28.563,28.563,0,0,1,28.563,0Z" transform="translate(1052.438 2972.437)"></path></g></svg>