<svg xmlns="http://www.w3.org/2000/svg" width="80" height="80" viewBox="0 0 80 80"><defs><style>.a{fill:#222;}.b,.c{fill:#fff;stroke:#fff;}.b{opacity:0.23;}</style></defs><g transform="translate(-643 -2961)"><circle class="a" cx="40" cy="40" r="40" transform="translate(643 2961)"></circle><path class="b" d="M14,7h0v9.269a4.657,4.657,0,0,1,3.973,2.152l7.449-5.628A13.963,13.963,0,0,0,14,7Z" transform="translate(668.908 2978.088)"></path><path class="c" d="M23.189,0h3.474c.662,0,.993.166.993.662s-.331.662-.993.828h-2.15a.437.437,0,0,0-.5.5V3.145a.437.437,0,0,0,.5.5A23.393,23.393,0,0,1,38.252,9.1a22.516,22.516,0,0,1,7.945,14.4,22.9,22.9,0,0,1-1.986,13.242.578.578,0,0,1-.166.331.737.737,0,0,1-.993.331.6.6,0,0,1-.331-.828l.5-.993a17.9,17.9,0,0,0,1.655-7.118c0-.662,0-.662-.662-.662H42.222c-.5,0-.828-.166-.828-.662s.331-.662.828-.828h2.152c.5,0,.662-.166.662-.662a21.512,21.512,0,0,0-2.646-9.1,29.269,29.269,0,0,0-2.812-3.973c-.331-.331-.5-.331-.828,0l-1.49,1.49c-.5.331-.828.5-1.159.166a.709.709,0,0,1,.166-1.159l1.49-1.49c.331-.331.331-.5,0-.828a22.683,22.683,0,0,0-10.6-5.131c-.828-.166-1.655-.166-2.648-.331a.437.437,0,0,0-.5.5V8.111a.91.91,0,0,1-.5.828.76.76,0,0,1-.993-.828V5.794c0-.5-.166-.662-.662-.5a20.607,20.607,0,0,0-7.78,1.821A24.183,24.183,0,0,0,8.623,10.76c-.331.166-.166.331,0,.5l1.655,1.655c.331.331.5.5.331.828,0,.662-.662.828-1.159.331A15.606,15.606,0,0,1,7.8,12.416c-.166-.331-.331-.331-.662,0A22.231,22.231,0,0,0,1.667,25c-.166,1.159,0,1.159.993,1.159H4.318a.757.757,0,0,1,.828.662.782.782,0,0,1-.828.828H2.167c-.662,0-.662,0-.662.662a19.707,19.707,0,0,0,2.152,8.111c.166.5.166.828-.331.993a.738.738,0,0,1-.993-.5A19.857,19.857,0,0,1,.18,29.8,21.38,21.38,0,0,1,2.663,16.222C6.3,9.269,12.1,5.3,19.713,3.974a9.436,9.436,0,0,1,2.152-.166.437.437,0,0,0,.5-.5c0-1.821,0-1.821-1.655-1.821H19.382c-.5,0-.828-.331-.662-.828,0-.5.331-.662.828-.662Z" transform="translate(659.719 2973.5)"></path><path class="c" d="M20.553,33.34A22.682,22.682,0,0,1,4.494,26.716.529.529,0,0,1,4,26.22c0-.331,0-.5.331-.662a.78.78,0,0,1,.993.166,20.968,20.968,0,0,0,2.152,1.821,20.449,20.449,0,0,0,11.753,4.3,21.746,21.746,0,0,0,15.395-5.132c.331-.331.828-.662,1.159-.993s.662-.5.993,0c.331.331.166.662-.166.993a23.546,23.546,0,0,1-6.787,4.635A19.917,19.917,0,0,1,20.553,33.34Z" transform="translate(662.354 2990.152)"></path><path class="c" d="M18.751,28.958A15.482,15.482,0,0,1,7.329,24.323L7,23.992A.621.621,0,0,1,7,23a.621.621,0,0,1,.993,0c.5.331.828.828,1.324,1.159a14.573,14.573,0,0,0,8.608,3.312,15.3,15.3,0,0,0,11.918-4.3,1.264,1.264,0,0,1,.828-.331c.331,0,.5.166.662.5a.728.728,0,0,1-.166.825,12.4,12.4,0,0,1-3.312,2.483,21.2,21.2,0,0,1-9.1,2.318Z" transform="translate(664.156 2988.408)"></path><path class="c" d="M17.75,24.463c-3.642,0-6.124-.993-8.111-2.979a.8.8,0,0,1-.166-1.159c.331-.331.662-.331,1.159,0l.166.166a7.707,7.707,0,0,0,4.139,2.152,9.18,9.18,0,0,0,8.442-2.152l.166-.166a.692.692,0,0,1,1.159,0c.331.331.331.662-.166,1.159A6.932,6.932,0,0,1,21.889,23.3a9.273,9.273,0,0,1-4.139,1.159Z" transform="translate(665.82 2986.613)"></path><path class="c" d="M29.869,8.936a.729.729,0,0,1-.993.662c-.166-.166-.331-.166-.5-.331l-4.8-4.8-.331-.331a.739.739,0,0,1,0-.828.78.78,0,0,1,.993-.166c.166.166.331.166.5.331l4.8,4.8A.86.86,0,0,1,29.869,8.936Z" transform="translate(674.889 2975.489)"></path><path class="c" d="M27.191,10.408a.577.577,0,0,0-.828-.166l-6.952,5.628A4.584,4.584,0,0,0,11.3,18.851a4.737,4.737,0,0,0,4.635,4.635,4.737,4.737,0,0,0,4.635-4.635,4.407,4.407,0,0,0-.5-1.989l7.117-5.624A.739.739,0,0,0,27.191,10.408ZM15.769,22.327a3.5,3.5,0,0,1-3.476-3.476,3.394,3.394,0,0,1,3.476-3.476,3.394,3.394,0,0,1,3.476,3.476A3.5,3.5,0,0,1,15.769,22.327Z" transform="translate(667.139 2980.142)"></path></g></svg>