<svg xmlns="http://www.w3.org/2000/svg" width="54" height="54" viewBox="0 0 54 54"><defs><style>.a{fill:#00b1a3;}.b,.c{fill:#fff;}.c{stroke:#1bb1a3;stroke-miterlimit:10;stroke-width:0.5px;}.d{fill:#1bb1a3;}</style></defs><g transform="translate(-626 -2328)"><g transform="translate(-176 -229)"><g transform="translate(-18112 3721)"><circle class="a" cx="27" cy="27" r="27" transform="translate(18914 -1164)"></circle><g transform="translate(-19 72)"><path class="b" d="M6.1,4.741V1.256A.715.715,0,0,1,6.856.5h20a.715.715,0,0,1,.757.757v15.3l-1.969-1.969h-6.06" transform="translate(18947.389 -1219.497)"></path><path class="c" d="M21.253,3.3h-20A.715.715,0,0,0,.5,4.056v15.3l1.818-1.818H21.1a.715.715,0,0,0,.757-.757V4.056C22.011,3.753,21.708,3.3,21.253,3.3Z" transform="translate(18944.502 -1217.555)"></path><path class="d" d="M12.523,12.878V8.636c.15-.3-.15-.606-.454-.606h-1.06V7.121A2.167,2.167,0,0,0,8.887,5,2.167,2.167,0,0,0,6.766,7.121V8.03H5.706a.65.65,0,0,0-.606.606v4.242c0,.3.15.606.454.606h6.363a.555.555,0,0,0,.606-.606Zm-3.636-.454a.757.757,0,1,1,0-1.515c.454,0,.606.3.606.757a.693.693,0,0,1-.605.757ZM9.8,8.03H7.979V7.121a.8.8,0,0,1,.909-.909.977.977,0,0,1,.909.909Z" transform="translate(18946.871 -1217.182)"></path></g></g></g></g></svg>