<svg xmlns="http://www.w3.org/2000/svg" width="54" height="54" viewBox="0 0 54 54"><defs><style>.a{fill:#d6b800;}.b{fill:#fff;}</style></defs><g transform="translate(-758 -2537)"><circle class="a" cx="27" cy="27" r="27" transform="translate(758 2537)"></circle><g transform="translate(110.352 813.301)"><g transform="translate(659.648 1734.699)"><g transform="translate(0 0)"><g transform="translate(4.124 9.116)"><rect class="b" width="18.923" height="1.862"></rect><rect class="b" width="18.923" height="1.862" transform="translate(0 3.948)"></rect><g transform="translate(0 8.12)"><rect class="b" width="18.923" height="1.862"></rect><rect class="b" width="18.923" height="1.862" transform="translate(0 3.874)"></rect><rect class="b" width="10.951" height="1.862" transform="translate(0 8.046)"></rect></g></g><path class="b" d="M687.27,1737.19v29.724H662.09V1737.19h25.18m.522-1.49h-26.3a.861.861,0,0,0-.894.894v30.842a.861.861,0,0,0,.894.894h26.3a.861.861,0,0,0,.894-.894v-30.842a.906.906,0,0,0-.894-.894Z" transform="translate(-660.599 -1735.699)"></path></g></g><g transform="translate(671.73 1736.961)"><g transform="translate(0 0)"><path class="b" d="M682.5,1753.523a1.789,1.789,0,0,1-1.415-.82l-4.4-6.928a1.941,1.941,0,0,1,.373-2.533,1.754,1.754,0,0,1,.969-.373,1.789,1.789,0,0,1,1.415.82l3.427,5.363,13.037-10.28a1.568,1.568,0,0,1,.968-.373,1.6,1.6,0,0,1,1.415.82,2.014,2.014,0,0,1-.373,2.533l-14.378,11.4a1.976,1.976,0,0,1-1.043.373Z" transform="translate(-676.009 -1737.953)"></path><path class="b" d="M696.755,1738.545a1.124,1.124,0,0,1,1.045.671,1.6,1.6,0,0,1-.3,2.086l-14.378,11.4a1.574,1.574,0,0,1-.745.3,1.189,1.189,0,0,1-1.045-.6l-4.4-6.928a1.6,1.6,0,0,1,.3-2.086,1.068,1.068,0,0,1,.745-.3,1.189,1.189,0,0,1,1.045.6l3.65,5.736,13.335-10.578a1.57,1.57,0,0,1,.745-.3m0-.745h0a1.692,1.692,0,0,0-1.192.447L682.9,1748.305l-3.2-5.066a2.065,2.065,0,0,0-1.713-.969,2.019,2.019,0,0,0-1.266.447,2.306,2.306,0,0,0-.447,3.054l4.4,6.928a2.065,2.065,0,0,0,1.713.969,1.691,1.691,0,0,0,1.192-.447l14.378-11.4a2.407,2.407,0,0,0,.522-3.054,1.971,1.971,0,0,0-1.713-.968Z" transform="translate(-675.883 -1737.8)"></path></g></g></g></g></svg>