<svg xmlns="http://www.w3.org/2000/svg" width="80" height="80" viewBox="0 0 80 80"><defs><style>.a{fill:#222;}.b{fill:#fff;}</style></defs><g transform="translate(-246 -2961)"><circle class="a" cx="40" cy="40" r="40" transform="translate(246 2961)"></circle><path class="b" d="M0,23.317a2.369,2.369,0,0,1,.873-1.961C4.252,18.083,7.636,14.7,11.015,11.43c.546-.546.982-.434,1.418.109,1.091,1.091,2.182,2.182,3.272,3.166.654.654,1.309,1.2,2.29.763A2.131,2.131,0,0,0,19.413,13.4c.109-.763.109-1.745,1.2-1.963a2.372,2.372,0,0,1,2.182.873,1.948,1.948,0,0,1,.654,1.963c-.218.763-.873.982-1.636,1.091-.327.109-.654.109-.982.218-1.745.654-2.072,2.072-.763,3.382l3.6,3.6c.546.546.546.873,0,1.418-1.309,1.2-2.509,2.4-3.709,3.6-.873.873-1.745.654-2.182-.434-.109-.218-.109-.434-.218-.654-.327-1.745-1.309-2.617-2.617-2.509a3.823,3.823,0,0,0-3.054,3.166,2.01,2.01,0,0,0,1.527,2.072,8.7,8.7,0,0,0,1.636.327c.982.218,1.418.982.873,1.745a24.221,24.221,0,0,1-4.034,4.145c-.327.327-.654.109-.873-.218C7.633,31.827,4.143,28.554.762,25.173A2.392,2.392,0,0,1,0,23.317Z" transform="translate(261.176 2978.003)"></path><path class="b" d="M23.935,46.437a2.971,2.971,0,0,1-2.29-.982c-3.166-3.166-6.435-6.326-9.6-9.38-.654-.654-.654-1.091,0-1.636a43.269,43.269,0,0,0,3.166-3.166,2.3,2.3,0,0,0,.763-2.4c-.327-.982-1.2-1.2-2.072-1.309s-1.854-.109-2.072-1.309a2.777,2.777,0,0,1,1.963-2.4,1.451,1.451,0,0,1,1.854,1.091c.109.434.218.982.327,1.418.654,1.745,2.182,2.182,3.6.873,1.309-1.2,2.617-2.4,3.817-3.709.546-.546.873-.546,1.309,0,1.2,1.2,2.4,2.29,3.49,3.49.873.873.654,1.636-.546,2.072-.434.109-.873.218-1.418.327a2.281,2.281,0,0,0-1.309,3.709,5.171,5.171,0,0,0,1.091,1.091c1.745,1.418,3.6.763,4.034-1.418,0-.218.109-.434.109-.654a1.323,1.323,0,0,1,.763-1.309c.546-.218.982.109,1.418.434,1.2,1.091,2.4,2.29,3.6,3.49.546.546.218.873-.218,1.309-1.636,1.527-3.166,3.054-4.8,4.581-1.745,1.745-3.49,3.382-5.236,5.126a2.3,2.3,0,0,1-1.747.66Z" transform="translate(262.219 2979.1)"></path><path class="b" d="M23.814,0a2.631,2.631,0,0,1,1.854.763C28.94,4.034,32.321,7.308,35.7,10.471c.546.546.546.873,0,1.418-1.2,1.091-2.29,2.182-3.382,3.382-.546.654-1.091,1.309-.763,2.182a2.131,2.131,0,0,0,2.072,1.418c.873.109,1.963.109,2.182,1.418.109.873-1.091,2.182-2.072,2.509a1.358,1.358,0,0,1-1.636-.873c-.218-.546-.218-1.091-.434-1.636a2.043,2.043,0,0,0-3.6-.873c-1.091,1.091-2.29,2.182-3.382,3.272-.546.546-.873.654-1.418.109-1.2-1.2-2.509-2.4-3.709-3.6-.763-.763-.546-1.527.434-1.963a3.185,3.185,0,0,1,.982-.218,2.607,2.607,0,0,0,2.182-1.636,2.4,2.4,0,0,0-.654-2.617,3.444,3.444,0,0,0-2.4-1.418C18.8,11.234,18.033,12,17.6,13.416c-.109.763.109,1.854-.873,2.182-1.091.327-1.527-.654-2.072-1.2L12.034,11.78q-.818-.654,0-1.309c3.272-3.164,6.545-6.437,9.817-9.6A2.554,2.554,0,0,1,23.814,0Z" transform="translate(262.227 2976.999)"></path><path class="b" d="M26.834,34.983c-1.091,0-2.617-1.527-2.509-2.509a1.4,1.4,0,0,1,1.091-1.2,9.086,9.086,0,0,0,1.636-.434c1.636-.654,2.072-2.182.873-3.382s-2.29-2.4-3.49-3.49c-.546-.546-.546-.982,0-1.418l3.272-3.272c.982-.873,1.854-.654,2.182.546a3.185,3.185,0,0,1,.218.982c.546,2.072,2.29,2.617,4.034,1.309a3.773,3.773,0,0,0,1.091-1.2A2.25,2.25,0,0,0,33.7,17.206a8.7,8.7,0,0,1-1.636-.327c-.763-.327-1.091-.982-.434-1.527l3.926-3.926c.546-.546.873-.109,1.2.218l3.272,3.268c2.072,1.963,4.145,4.034,6.217,6,1.636,1.636,1.636,3.054,0,4.69-3.054,3.054-6.217,6-9.271,9.053-.546.546-.982.654-1.527,0-1.091-1.091-2.182-2.072-3.272-3.054-.763-.763-1.527-1.2-2.509-.763a2.051,2.051,0,0,0-1.309,2.182C28.143,34,27.924,34.874,26.834,34.983Z" transform="translate(263.354 2978.01)"></path></g></svg>