<svg xmlns="http://www.w3.org/2000/svg" width="54" height="54" viewBox="0 0 54 54"><defs><style>.a{fill:#405e73;}.b{fill:#fff;}</style></defs><g transform="translate(-186 -2836)"><circle class="a" cx="27" cy="27" r="27" transform="translate(186 2836)"></circle><g transform="translate(-84 84)"><g transform="translate(280 2762)"><path class="b" d="M60.4,95.9c-.284.063-.568.126-.82.189a1.331,1.331,0,0,0-1.041,1.578c0,.031.031.095.031.126a1.314,1.314,0,0,0,1.546.915c.347-.063.663-.158,1.01-.221a1.326,1.326,0,0,0,.946-1.641A1.36,1.36,0,0,0,60.4,95.9Z" transform="translate(-40.04 -65.6)"></path><path class="b" d="M28.936,92.44l-.757-.379a1.311,1.311,0,0,0-1.8.568,1.411,1.411,0,0,0-.095,1.01,1.182,1.182,0,0,0,.663.789c.315.158.6.315.915.441a1.316,1.316,0,0,0,1.767-.694,1.3,1.3,0,0,0-.694-1.735Z" transform="translate(-17.95 -62.899)"></path><path class="b" d="M44.339,97.07l-.852-.095a1.348,1.348,0,0,0-1.515,1.135,1.676,1.676,0,0,0,.031.568,1.421,1.421,0,0,0,1.1.946c.347.031.663.095,1.01.126a1.346,1.346,0,1,0,.221-2.682Z" transform="translate(-28.715 -66.361)"></path><path class="b" d="M75.314,89.108c-.221.158-.474.315-.726.474a1.38,1.38,0,0,0-.6,1.546,1.318,1.318,0,0,0,.126.315,1.3,1.3,0,0,0,1.83.441c.284-.189.568-.347.852-.534a1.356,1.356,0,0,0,.347-1.862,1.294,1.294,0,0,0-1.829-.38Z" transform="translate(-50.603 -60.829)"></path><path class="b" d="M89.133,77.553a1.322,1.322,0,0,0-1.862.315,5.467,5.467,0,0,1-.534.663,1.346,1.346,0,0,0-.252,1.231,1.3,1.3,0,0,0,.441.663,1.35,1.35,0,0,0,1.889-.189c.221-.252.41-.534.631-.82a1.326,1.326,0,0,0-.313-1.862Z" transform="translate(-59.151 -52.902)"></path><path class="b" d="M96.662,62.471a1.33,1.33,0,0,0-1.67.915c-.095.284-.158.534-.252.82a1.566,1.566,0,0,0-.031.852,1.347,1.347,0,0,0,.817.886,1.372,1.372,0,0,0,1.737-.82,8.872,8.872,0,0,0,.315-.983A1.366,1.366,0,0,0,96.662,62.471Z" transform="translate(-64.786 -42.713)"></path><path class="b" d="M34.383,10.976l-1.767.534a16.681,16.681,0,0,0-7.984-9.527,9.91,9.91,0,0,0-1.167-.568h0c-.031,0-.031,0-.063-.031A16.808,16.808,0,0,0,12.356.562a.116.116,0,0,0-.095.031l-.379.095c-.189.063-.41.126-.6.189-.031,0-.031.031-.063.031A16.952,16.952,0,0,0,3.11,7a.031.031,0,0,1-.031.031,9.976,9.976,0,0,0-.568.852.031.031,0,0,1-.031.031c-.158.315-.347.6-.5.915A16.644,16.644,0,0,0,.112,18.8v.063A19.734,19.734,0,0,0,.68,21.578,16.644,16.644,0,0,0,4.215,27.89a1.341,1.341,0,0,0,1.991-1.8,14.843,14.843,0,0,1-2.051-3,.031.031,0,0,0-.031-.031c-.126-.252-.252-.5-.379-.789h0A11.844,11.844,0,0,1,3.21,20.79,14.265,14.265,0,0,1,8.443,5.39a1.336,1.336,0,0,1,.221-.158A13.71,13.71,0,0,1,12.7,3.276a14.537,14.537,0,0,1,4.449-.6h.441A14.038,14.038,0,0,1,28.8,9.524h0l.095.189v.035A13.378,13.378,0,0,1,30.028,12.3l-1.767.534c-.5.158-.534.5-.095.789l3.85,2.493a.739.739,0,0,0,1.135-.347l1.767-4.228C35.109,11.1,34.858,10.817,34.383,10.976Z" transform="translate(0.018 0.01)"></path><path class="b" d="M29.7,41.839a11.451,11.451,0,0,0-2.651,2.493A5,5,0,0,0,26.2,46.6h8.11V44.4h-4.2c.252-.252.474-.441.663-.6a13.354,13.354,0,0,1,1.1-.789,6.95,6.95,0,0,0,1.893-1.769,3.1,3.1,0,0,0,.534-1.7,2.751,2.751,0,0,0-.441-1.515,2.863,2.863,0,0,0-1.262-1.01,5.957,5.957,0,0,0-2.209-.315,5.632,5.632,0,0,0-2.146.347,2.84,2.84,0,0,0-1.2.978,4.63,4.63,0,0,0-.6,1.767l2.714.221a1.82,1.82,0,0,1,.441-1.135,1.142,1.142,0,0,1,.852-.315,1.069,1.069,0,0,1,.82.315,1.026,1.026,0,0,1,.315.757,1.574,1.574,0,0,1-.347.884A8.424,8.424,0,0,1,29.7,41.839Z" transform="translate(-17.928 -25.111)"></path><path class="b" d="M61.989,46.677v-1.83H63.22V42.764H61.989V36.8H59.623L54.7,42.638v2.209h4.923v1.83Zm-4.952-3.913L59.625,39.7v3.061Z" transform="translate(-37.435 -25.184)"></path></g></g></g></svg>