<svg xmlns="http://www.w3.org/2000/svg" width="54" height="54" viewBox="0 0 54 54"><defs><style>.a,.c{fill:#405e73;}.b{fill:#fff;}.c{font-size:14px;font-family:Helvetica;}</style></defs><g transform="translate(-1030 -2328)"><g transform="translate(800 -229)"><g transform="translate(-18607 3721)"><circle class="a" cx="27" cy="27" r="27" transform="translate(18837 -1164)"></circle><g transform="translate(7.001 88)"><g transform="translate(18863.574 -1238)"><path class="b" d="M18.826,7.173a.619.619,0,0,0,1.231-.137h0A2.992,2.992,0,0,0,17.047,4.3a.588.588,0,0,0-.547.547.588.588,0,0,0,.547.547,1.911,1.911,0,0,1,1.779,1.779Z" transform="translate(-16.5 1.589)"></path><path class="b" d="M23.009,7.909a.5.5,0,0,0,.137-.41,6.1,6.1,0,0,0-5.061-5.2c-.271,0-.684.137-.684.547a.7.7,0,0,0,.547.684,4.933,4.933,0,0,1,4.1,4.241.626.626,0,0,0,.684.547C22.735,8.182,22.872,8.046,23.009,7.909Z" transform="translate(-16.169 0.853)"></path><path class="b" d="M17.8.542c0,.271.137.684.547.684a8.159,8.159,0,0,1,6.43,6.7.626.626,0,0,0,.684.547c.41,0,.547-.271.547-.684V7.655A9.155,9.155,0,0,0,18.621-.005.75.75,0,0,0,17.8.542Z" transform="translate(-16.022 0.012)"></path></g><g transform="translate(18841 -1237.994)"><path class="b" d="M5.828,7.173A.619.619,0,1,1,4.6,7.036h0A2.992,2.992,0,0,1,7.606,4.3a.588.588,0,0,1,.547.547.588.588,0,0,1-.547.547A2.18,2.18,0,0,0,5.828,7.173Z" transform="translate(1.698 1.583)"></path><path class="b" d="M2.317,7.946c0-.137-.137-.271,0-.41A6.092,6.092,0,0,1,7.381,2.2c.271,0,.684.137.684.547a.7.7,0,0,1-.547.684,4.933,4.933,0,0,0-4.1,4.241.626.626,0,0,1-.684.547C2.59,8.219,2.454,8.082,2.317,7.946Z" transform="translate(0.832 0.81)"></path><path class="b" d="M8.07.547c0,.271-.137.684-.547.684A7.853,7.853,0,0,0,1.228,7.8a.626.626,0,0,1-.684.547C.134,8.345,0,8.073,0,7.66V7.523A9.329,9.329,0,0,1,7.386,0C7.8,0,8.07.137,8.07.547Z" transform="translate(0.003)"></path></g><path class="b" d="M13.069,5.677a1.938,1.938,0,0,1,3.419,0L21,13.475l4.514,7.8a1.958,1.958,0,0,1-1.642,3.01H5.818a1.958,1.958,0,0,1-1.642-3.01l4.514-7.8Z" transform="translate(18842.434 -1236.283)"></path><text class="c" transform="translate(18855.373 -1215.494)"><tspan x="0" y="0">i</tspan></text></g></g></g></g></svg>